<svg xmlns="http://www.w3.org/2000/svg" viewBox="0 0 235.64 60"><defs><style>.a{fill:#4f266e;}.b{fill:#927ea6;}.c{fill:#fff;}.d{fill:none;}.e{fill:#474747;}</style></defs><title>logo</title><path class="a" d="M71.69,54.79V44.38h3.93a10.12,10.12,0,0,1,1.58.1,3.25,3.25,0,0,1,1.29.49,2.58,2.58,0,0,1,.83,1,3.22,3.22,0,0,1,.32,1.42,3.17,3.17,0,0,1-.85,2.25,4.06,4.06,0,0,1-3.05.92H73.07v4.23Zm1.38-5.46h2.69a2.83,2.83,0,0,0,1.9-.5,1.76,1.76,0,0,0,.56-1.39,1.88,1.88,0,0,0-.33-1.12A1.56,1.56,0,0,0,77,45.7a6,6,0,0,0-1.29-.09H73.07Z" transform="translate(-3.41 -3)"/><path class="a" d="M81.07,54.79V44.38h1.38v4.28h5.41V44.38h1.38V54.79H87.86v-4.9H82.45v4.9Z" transform="translate(-3.41 -3)"/><path class="a" d="M90.75,49.72a5.67,5.67,0,0,1,1.39-4.06,4.76,4.76,0,0,1,3.59-1.46,5,5,0,0,1,2.6.69,4.56,4.56,0,0,1,1.77,1.92,6.75,6.75,0,0,1,0,5.63,4.38,4.38,0,0,1-1.82,1.89,5.13,5.13,0,0,1-2.52.64,5,5,0,0,1-2.63-.71,4.5,4.5,0,0,1-1.75-1.94A5.83,5.83,0,0,1,90.75,49.72Zm1.42,0a4.19,4.19,0,0,0,1,3,3.54,3.54,0,0,0,5.1,0,4.44,4.44,0,0,0,1-3.11,5.41,5.41,0,0,0-.42-2.21,3.25,3.25,0,0,0-1.26-1.47,3.39,3.39,0,0,0-1.86-.53,3.55,3.55,0,0,0-2.52,1A4.5,4.5,0,0,0,92.17,49.74Z" transform="translate(-3.41 -3)"/><path class="a" d="M104.77,54.79V45.61h-3.43V44.38h8.25v1.23h-3.45v9.18Z" transform="translate(-3.41 -3)"/><path class="a" d="M110,49.72a5.67,5.67,0,0,1,1.39-4.06,4.75,4.75,0,0,1,3.59-1.46,5,5,0,0,1,2.6.69,4.48,4.48,0,0,1,1.76,1.92,6.65,6.65,0,0,1,0,5.63,4.35,4.35,0,0,1-1.81,1.89,5.14,5.14,0,0,1-2.53.64,4.92,4.92,0,0,1-2.62-.71,4.52,4.52,0,0,1-1.76-1.94A6,6,0,0,1,110,49.72Zm1.42,0a4.15,4.15,0,0,0,1,3,3.54,3.54,0,0,0,5.1,0,4.44,4.44,0,0,0,1-3.11,5.25,5.25,0,0,0-.43-2.21,3.18,3.18,0,0,0-1.25-1.47,3.44,3.44,0,0,0-1.86-.53,3.52,3.52,0,0,0-2.52,1A4.5,4.5,0,0,0,111.38,49.74Z" transform="translate(-3.41 -3)"/><path class="a" d="M126.2,50.71V49.49h4.4v3.86a7.6,7.6,0,0,1-2.09,1.22,6.28,6.28,0,0,1-2.22.41,5.85,5.85,0,0,1-2.78-.66,4.31,4.31,0,0,1-1.9-1.9,6,6,0,0,1-.63-2.77,6.49,6.49,0,0,1,.63-2.84,4.21,4.21,0,0,1,1.83-2,5.78,5.78,0,0,1,2.75-.63,5.53,5.53,0,0,1,2,.36,3.33,3.33,0,0,1,1.43,1,4.47,4.47,0,0,1,.79,1.7l-1.24.34a3.83,3.83,0,0,0-.59-1.25,2.36,2.36,0,0,0-1-.72,3.51,3.51,0,0,0-1.43-.28,4.29,4.29,0,0,0-1.64.29,3,3,0,0,0-1.11.76,3.62,3.62,0,0,0-.66,1,5.51,5.51,0,0,0-.39,2.09,5.2,5.2,0,0,0,.47,2.33,3,3,0,0,0,1.4,1.39,4.24,4.24,0,0,0,2,.46,5.24,5.24,0,0,0,3-1.08V50.71Z" transform="translate(-3.41 -3)"/><path class="a" d="M132.29,54.79V44.38h4.62a6.37,6.37,0,0,1,2.12.28,2.35,2.35,0,0,1,1.15,1,3,3,0,0,1,.44,1.57,2.62,2.62,0,0,1-.72,1.87,3.64,3.64,0,0,1-2.22,1,3.05,3.05,0,0,1,.83.52A6.74,6.74,0,0,1,139.66,52l1.81,2.83h-1.73l-1.38-2.16c-.4-.63-.74-1.11-1-1.44a3,3,0,0,0-.7-.69,1.81,1.81,0,0,0-.62-.28,4.55,4.55,0,0,0-.77,0h-1.6v4.62ZM133.67,49h3a4.47,4.47,0,0,0,1.48-.2,1.64,1.64,0,0,0,.81-.62,1.75,1.75,0,0,0,.28-.94,1.54,1.54,0,0,0-.54-1.21,2.49,2.49,0,0,0-1.69-.48h-3.3Z" transform="translate(-3.41 -3)"/><path class="a" d="M141.27,54.79l4-10.41h1.48L151,54.79h-1.57l-1.21-3.15h-4.36l-1.14,3.15Zm3-4.27h3.53l-1.08-2.89c-.34-.87-.58-1.59-.74-2.15a14.28,14.28,0,0,1-.56,2Z" transform="translate(-3.41 -3)"/><path class="a" d="M151.75,54.79V44.38h3.92a10.27,10.27,0,0,1,1.59.1,3.14,3.14,0,0,1,1.28.49,2.52,2.52,0,0,1,.84,1,3.42,3.42,0,0,1-.53,3.67,4.06,4.06,0,0,1-3,.92h-2.67v4.23Zm1.38-5.46h2.69a2.78,2.78,0,0,0,1.89-.5,1.73,1.73,0,0,0,.56-1.39,1.88,1.88,0,0,0-.33-1.12,1.56,1.56,0,0,0-.87-.62,6,6,0,0,0-1.28-.09h-2.66Z" transform="translate(-3.41 -3)"/><path class="a" d="M161.13,54.79V44.38h1.37v4.28h5.42V44.38h1.37V54.79h-1.37v-4.9H162.5v4.9Z" transform="translate(-3.41 -3)"/><path class="a" d="M174.16,54.79V50.38l-4-6h1.67l2.05,3.14c.38.59.73,1.18,1.06,1.76.31-.54.69-1.16,1.14-1.84l2-3.06h1.61l-4.16,6v4.41Z" transform="translate(-3.41 -3)"/><path class="a" d="M189.76,53.56a4.49,4.49,0,0,1-1.37,1.06,3.83,3.83,0,0,1-1.62.35,3.17,3.17,0,0,1-2.53-1.08,2.92,2.92,0,0,1-.76-2,2.75,2.75,0,0,1,.62-1.74A5.17,5.17,0,0,1,186,48.81,6.27,6.27,0,0,1,185,47.5a2.27,2.27,0,0,1-.24-1,2.16,2.16,0,0,1,.74-1.63,2.6,2.6,0,0,1,1.85-.69,2.38,2.38,0,0,1,1.74.65,2.07,2.07,0,0,1,.68,1.57c0,1-.65,1.83-2,2.53l1.87,2.38a5.61,5.61,0,0,0,.5-1.45l1.33.29a7.26,7.26,0,0,1-.93,2.24,7.26,7.26,0,0,0,1.63,1.6l-.86,1A7.3,7.3,0,0,1,189.76,53.56Zm-.8-1-2.34-2.91a4.5,4.5,0,0,0-1.4,1.15,1.85,1.85,0,0,0-.36,1.05,2.18,2.18,0,0,0,.5,1.31,1.68,1.68,0,0,0,1.43.68,2.36,2.36,0,0,0,1.19-.36A2.89,2.89,0,0,0,189,52.56Zm-1.8-4.42a3.31,3.31,0,0,0,1.08-.86,1.49,1.49,0,0,0,.25-.82,1.22,1.22,0,0,0-.34-.87,1.17,1.17,0,0,0-.84-.33,1.21,1.21,0,0,0-.87.33,1.08,1.08,0,0,0-.34.82,1.18,1.18,0,0,0,.12.5,2.82,2.82,0,0,0,.38.57Z" transform="translate(-3.41 -3)"/><path class="a" d="M200,54.79l-4-10.41h1.49L200.13,52c.22.6.4,1.17.54,1.7.17-.57.35-1.14.57-1.7l2.81-7.57h1.4l-4.07,10.41Z" transform="translate(-3.41 -3)"/><path class="a" d="M206.56,54.79V44.38h1.38V54.79Z" transform="translate(-3.41 -3)"/><path class="a" d="M210,54.79V44.38h3.59a8.57,8.57,0,0,1,1.85.15,3.55,3.55,0,0,1,1.53.75,4.14,4.14,0,0,1,1.23,1.78,7,7,0,0,1,.41,2.47,7.07,7.07,0,0,1-.28,2.1,5,5,0,0,1-.71,1.52,3.81,3.81,0,0,1-.94.94,4,4,0,0,1-1.25.53,7.53,7.53,0,0,1-1.67.17Zm1.38-1.23h2.22a5.35,5.35,0,0,0,1.62-.19,2.12,2.12,0,0,0,.93-.54,3.17,3.17,0,0,0,.77-1.31,6.56,6.56,0,0,0,.27-2,4.8,4.8,0,0,0-.54-2.51,2.71,2.71,0,0,0-1.3-1.18,5.44,5.44,0,0,0-1.78-.21h-2.19Z" transform="translate(-3.41 -3)"/><path class="a" d="M220.17,54.79V44.38h7.53v1.23h-6.15V48.8h5.76V50h-5.76v3.54h6.39v1.23Z" transform="translate(-3.41 -3)"/><path class="a" d="M229.06,49.72a5.67,5.67,0,0,1,1.39-4.06,4.77,4.77,0,0,1,3.6-1.46,4.94,4.94,0,0,1,2.59.69,4.5,4.5,0,0,1,1.77,1.92,6.65,6.65,0,0,1,0,5.63,4.41,4.41,0,0,1-1.81,1.89A5.2,5.2,0,0,1,234,55a5,5,0,0,1-2.63-.71,4.5,4.5,0,0,1-1.75-1.94A5.83,5.83,0,0,1,229.06,49.72Zm1.42,0a4.19,4.19,0,0,0,1,3,3.54,3.54,0,0,0,5.1,0,4.44,4.44,0,0,0,1-3.11,5.41,5.41,0,0,0-.43-2.21,3.25,3.25,0,0,0-1.26-1.47,3.39,3.39,0,0,0-1.86-.53,3.55,3.55,0,0,0-2.52,1A4.5,4.5,0,0,0,230.48,49.74Z" transform="translate(-3.41 -3)"/><path class="b" d="M71.32,37.07V11.93h3.32V24.4L87.12,11.93h4.51L81.09,22.12l11,15H87.71L78.76,24.34l-4.12,4v8.71Z" transform="translate(-3.41 -3)"/><path class="b" d="M106.24,31.2l3.19.4a7.78,7.78,0,0,1-2.79,4.34,8.47,8.47,0,0,1-5.22,1.54A8.32,8.32,0,0,1,95.09,35a9.61,9.61,0,0,1-2.34-6.9A10.12,10.12,0,0,1,95.11,21a8,8,0,0,1,6.14-2.53,7.8,7.8,0,0,1,6,2.48,9.9,9.9,0,0,1,2.31,7c0,.18,0,.46,0,.82H95.94a7,7,0,0,0,1.69,4.6,5.07,5.07,0,0,0,3.81,1.59,4.76,4.76,0,0,0,2.9-.89A5.88,5.88,0,0,0,106.24,31.2Zm-10.13-5h10.17a6.16,6.16,0,0,0-1.17-3.44A4.73,4.73,0,0,0,101.29,21a4.92,4.92,0,0,0-3.58,1.43A5.58,5.58,0,0,0,96.11,26.21Z" transform="translate(-3.41 -3)"/><path class="b" d="M112.6,37.07V18.86h2.78v2.59a6.55,6.55,0,0,1,5.8-3,7.5,7.5,0,0,1,3,.59,4.76,4.76,0,0,1,2.07,1.55,5.87,5.87,0,0,1,1,2.28,18.16,18.16,0,0,1,.17,3v11.2h-3.09V26a8.29,8.29,0,0,0-.36-2.82,3,3,0,0,0-1.27-1.49,4.08,4.08,0,0,0-2.15-.56,5,5,0,0,0-3.41,1.25q-1.43,1.26-1.43,4.75v10Z" transform="translate(-3.41 -3)"/><path class="a" d="M131.19,37.29V12.15h17v3H134.52V22.9h11.79v3H134.52V37.29Z" transform="translate(-3.41 -3)"/><path class="a" d="M150.14,37.27V19.06h2.78v2.77a7.48,7.48,0,0,1,2-2.56,3.44,3.44,0,0,1,2-.62,6,6,0,0,1,3.17,1L159,22.51a4.46,4.46,0,0,0-2.26-.67,2.92,2.92,0,0,0-1.82.61,3.31,3.31,0,0,0-1.15,1.69,12.14,12.14,0,0,0-.51,3.6v9.53Z" transform="translate(-3.41 -3)"/><path class="a" d="M161.89,15.65V12.1H165v3.55Zm0,21.59V19H165V37.24Z" transform="translate(-3.41 -3)"/><path class="a" d="M181.43,31.33l3.19.39a7.78,7.78,0,0,1-2.79,4.34,9.48,9.48,0,0,1-11.55-.92,9.61,9.61,0,0,1-2.34-6.9q0-4.59,2.37-7.13a8,8,0,0,1,6.13-2.54,7.77,7.77,0,0,1,6,2.49,9.88,9.88,0,0,1,2.32,7c0,.18,0,.46,0,.82H171.13a7,7,0,0,0,1.7,4.6,5,5,0,0,0,3.8,1.59,4.7,4.7,0,0,0,2.9-.89A5.9,5.9,0,0,0,181.43,31.33Zm-10.13-5h10.17a6.22,6.22,0,0,0-1.17-3.45,4.72,4.72,0,0,0-3.82-1.78,4.91,4.91,0,0,0-3.58,1.42A5.65,5.65,0,0,0,171.3,26.34Z" transform="translate(-3.41 -3)"/><path class="a" d="M187.33,31.77l3.06-.48a4.23,4.23,0,0,0,1.43,2.82,5,5,0,0,0,3.28,1,4.89,4.89,0,0,0,3.16-.86,2.61,2.61,0,0,0,1-2,1.88,1.88,0,0,0-.9-1.65,14.12,14.12,0,0,0-3.16-1.05A28.8,28.8,0,0,1,190.51,28a4.67,4.67,0,0,1-2.1-6.43,5,5,0,0,1,1.51-1.72,6.14,6.14,0,0,1,2-.9,9.1,9.1,0,0,1,2.66-.37,10.38,10.38,0,0,1,3.77.62,5.15,5.15,0,0,1,2.39,1.67,6.5,6.5,0,0,1,1.06,2.82l-3,.41a3.23,3.23,0,0,0-1.19-2.19,4.32,4.32,0,0,0-2.78-.79,5.06,5.06,0,0,0-3,.7,2,2,0,0,0-.91,1.65,1.71,1.71,0,0,0,.38,1.08,2.72,2.72,0,0,0,1.18.82c.31.11,1.22.38,2.73.79a38.41,38.41,0,0,1,4.57,1.43,4.62,4.62,0,0,1,2,1.62,4.54,4.54,0,0,1,.74,2.64,5.19,5.19,0,0,1-.9,2.91,5.85,5.85,0,0,1-2.6,2.11,9.56,9.56,0,0,1-3.84.74,8.57,8.57,0,0,1-5.41-1.47A6.91,6.91,0,0,1,187.33,31.77Z" transform="translate(-3.41 -3)"/><path class="a" d="M204.28,28.09c0-3.38.93-5.87,2.81-7.5a8.44,8.44,0,0,1,5.72-2A8.17,8.17,0,0,1,219,21a9.37,9.37,0,0,1,2.39,6.8,12.08,12.08,0,0,1-1.06,5.53,7.53,7.53,0,0,1-3.07,3.13,9,9,0,0,1-4.4,1.11,8.16,8.16,0,0,1-6.18-2.45C205.06,33.52,204.28,31.16,204.28,28.09Zm3.17,0A7.77,7.77,0,0,0,209,33.32a5.1,5.1,0,0,0,7.67,0A8,8,0,0,0,218.16,28a7.52,7.52,0,0,0-1.53-5.11,5.08,5.08,0,0,0-7.66,0A7.74,7.74,0,0,0,207.45,28.09Z" transform="translate(-3.41 -3)"/><path class="a" d="M224.25,37.19V19H227v2.59a6.55,6.55,0,0,1,5.79-3,7.69,7.69,0,0,1,3,.59,4.83,4.83,0,0,1,2.07,1.55,6.18,6.18,0,0,1,1,2.28,18.33,18.33,0,0,1,.17,3v11.2H236V26.11a8.37,8.37,0,0,0-.36-2.82,2.93,2.93,0,0,0-1.28-1.49,4,4,0,0,0-2.15-.55,5,5,0,0,0-3.4,1.25c-1,.83-1.43,2.41-1.43,4.75v9.94Z" transform="translate(-3.41 -3)"/><circle class="a" cx="30" cy="30" r="17"/><path class="c" d="M27.32,37.81V28.25h1.27V33l4.75-4.74h1.71l-4,3.87,4.19,5.69H33.56L30.15,33,28.59,34.5v3.31Z" transform="translate(-3.41 -3)"/><path class="c" d="M35.86,37.81V28.25h6.45v1.13H37.12v3h4.49v1.13H37.12v4.34Z" transform="translate(-3.41 -3)"/><path class="d" d="M60,47a27.8,27.8,0,0,0,1.24-2.65L45.41,17H58.78a28.48,28.48,0,0,0-1.68-2.39H25.55L32.24,3c-1,0-2,.12-2.91.25L13.55,30.61,6.87,19a27.8,27.8,0,0,0-1.24,2.65L21.41,49H8a28.48,28.48,0,0,0,1.68,2.39H41.27L34.58,63c1,0,2-.12,2.91-.25L53.27,35.39Z" transform="translate(-3.41 -3)"/><path class="e" d="M5.63,21.67A30,30,0,0,0,8,49H21.41Z" transform="translate(-3.41 -3)"/><path class="e" d="M9.72,51.39A29.93,29.93,0,0,0,33.41,63q.59,0,1.17,0l6.69-11.58Z" transform="translate(-3.41 -3)"/><path class="e" d="M60,47,53.27,35.39,37.49,62.72A30,30,0,0,0,60,47Z" transform="translate(-3.41 -3)"/><path class="e" d="M61.19,44.33A30,30,0,0,0,58.78,17H45.41Z" transform="translate(-3.41 -3)"/><path class="e" d="M57.1,14.61A29.93,29.93,0,0,0,33.41,3q-.58,0-1.17,0L25.55,14.61Z" transform="translate(-3.41 -3)"/><path class="e" d="M29.33,3.28A30,30,0,0,0,6.87,19l6.68,11.59Z" transform="translate(-3.41 -3)"/></svg>