<svg title="MediaMix Group" xmlns="http://www.w3.org/2000/svg" xml:space="preserve" viewBox="0 0 1803.2 516"><path fill="#7dd5f7" d="M71 143v355.1c0 17.6 0 17.6-17.4 17.7-14 0-28-.3-41.7 0-9 .3-11.9-3-11.9-12C.4 468 0 432 0 396V0c6.7 4 11 6.3 14.8 9.2 105.8 79.4 211.6 159 317.3 238.6 8.6 6.5 14.2 6.8 23 0 93.1-70.3 186.4-140.4 279.8-210.3 13.5-10.1 27-20.3 40.7-30.4 2.8-2 6-3.6 11.6-6.9 0 28.8.3 54.9-.4 80.9 0 3.5-4.7 7.7-8.2 10.4-108 81.5-216 162.9-324.3 244.2-8 6-13.2 5.7-20.9 0A52934 52934 0 0 0 86.9 150.2c-4-3-8-5.8-12-8.6l-4 1.5"/><path fill="#2b3986" d="M140 277.6c6.4 4 10.5 6 13.8 8.6C213 330.6 272.3 375 331.4 419.7c9.2 7 15.2 7.7 25 .3a65969 65969 0 0 1 318-239.5c3.2-2.5 6.7-4.4 12.3-8 .4 7 .9 11.3.9 15.6 0 104 0 208.1.3 312.2 0 12.4-3.9 16.3-15.7 15.6-13.9-.8-27.8-.8-41.7 0-11.5.7-13.1-5.2-13-14.6V328.7c0-4.5-.6-9-1-16.4-5.1 3.5-8.6 5.2-11.7 7.8A63228.3 63228.3 0 0 0 355 507.5c-8.8 6.7-14.2 6.3-22.7 0C272 461.5 211.7 416 151 370.7a24.2 24.2 0 0 1-11.2-22.2c.7-22.6.2-45.3.2-70.9"/><path fill="#28292a" d="M880.6 187.5c.3-17.8-7.3-45.4-38.8-45.4-28.3 0-40.7 26-42.9 45.4zm-82 20c.6 37.9 24.8 53.5 52.8 53.5 20 0 32-3.5 42.6-8l4.7 20c-9.8 4.5-26.7 9.6-51.2 9.6-47.3 0-75.6-31.2-75.6-77.6 0-46.4 27.3-83 72.2-83 50.2 0 63.5 44.2 63.5 72.5 0 5.8-.6 10.2-1 13h-108m248.6-19.3c0-3.5-.3-8.3-1.3-11.8a41.1 41.1 0 0 0-40.3-32.4c-29 0-46.1 25.4-46.1 59.4 0 31.2 15.2 57 45.4 57a42 42 0 0 0 41-33.4c1-3.9 1.3-7.7 1.3-12.1zm28-134.5v186c0 13.6.3 29.2 1.3 39.7h-25.2l-1.2-26.7h-.7A57 57 0 0 1 997 283c-37.2 0-65.8-31.5-65.8-78.2-.4-51.2 31.4-82.7 69-82.7 23.5 0 39.4 11.2 46.4 23.6h.6v-92h28m46.4 225.7V125.5h28v154zm31.2-197.1c.3 9.5-6.7 17.2-17.9 17.2-9.8 0-16.8-7.7-16.8-17.2a17 17 0 0 1 17.5-17.5c10.5 0 17.2 7.6 17.2 17.5M1277 200.9c-30.5-.6-65.1 4.8-65.1 34.6 0 18.2 12 26.7 26.4 26.7 20 0 32.7-12.7 37.2-25.7 1-2.9 1.6-6 1.6-9zm4.2 78.5L1279 260h-1a57.3 57.3 0 0 1-47 23c-31.2 0-47.1-22-47.1-44.3 0-37.2 33-57.5 92.5-57.2v-3.2c0-12.7-3.5-35.6-35-35.6a76.7 76.7 0 0 0-40 11.5l-6.4-18.5a95.5 95.5 0 0 1 50.6-13.7c47 0 58.5 32.2 58.5 63v57.5c0 13.4.6 26.4 2.5 37h-25.4m249.6-94.2a1596 1596 0 0 1-3.2-92.5h-1c-7.3 25.1-16.2 51.8-27 81.4l-37.8 104h-21L1406 176a966.2 966.2 0 0 1-24.8-83.3h-.6c-.6 26.7-2.2 62.6-4.1 94.7l-5.8 92h-26.3l15-214.4h35.3l36.6 103.7a874 874 0 0 1 21.6 72.1h1c5.3-21.6 13-45.1 22.5-72.1L1514.5 65h35.3l13.4 214.3h-27l-5.4-94m77.8 94.1V125.5h28v154zm31.2-197.1c.3 9.5-6.7 17.2-17.8 17.2-9.9 0-16.9-7.7-16.9-17.2a17 17 0 0 1 17.5-17.5c10.5 0 17.2 7.6 17.2 17.5m56.2 43.2 22 33.1a546 546 0 0 1 15.6 25.1h1c5-9.2 10.1-17.1 15.2-25.4l21.6-32.8h30.2l-52.4 74.4 54 79.5h-31.8l-22.5-34.6c-6.1-9-11.2-17.5-16.6-26.7h-.6c-5.1 9.2-10.5 17.4-16.2 26.7l-22.3 34.6h-30.8L1717 201l-52.2-75.4h31.2M863.4 452.7c-7.3 2.7-21.5 6.5-36.8 6.5-19.3 0-33.9-5-44.8-15.3a56.6 56.6 0 0 1-15.9-42c0-36.2 25.8-59.4 63.6-59.4 14 0 25.1 2.9 30.4 5.4l-4.6 16.8c-6.3-2.7-14-5-26-5-24.4 0-41.5 14.5-41.5 41.1 0 26 16 41.4 39.7 41.4 7.4 0 13-1 15.7-2.4v-28.5h-20.1V395h40.3v57.8m42.1-57.1h12.4c14 0 22.9-7.4 22.9-18.8 0-12.5-8.9-18.3-22.4-18.3a60 60 0 0 0-13 1zm-20.7-50.5c7.8-1.4 19.5-2.4 31.5-2.4 16.5 0 27.7 2.7 35.3 9.2a29 29 0 0 1 9.9 22.9c0 14.7-10 24.7-20.7 28.6v.5c8.1 3 13 11 15.9 22 3.6 14.3 6.6 27.6 9 32h-21.5c-1.7-3.4-4.5-12.8-7.7-27-3.2-15-8.6-19.7-20.5-20h-10.5v47h-20.7V345.2m112.6 56.1c0 23.3 11.7 41.7 31.7 41.7 20.2 0 31.6-18.6 31.6-42.5 0-21.6-10.7-42-31.6-42-20.7 0-31.7 19.2-31.7 42.8zm85.3-1.7c0 38.4-23.2 60.2-54.8 60.2-32.2 0-52.5-24.6-52.5-58.1 0-35.1 22-60 54.2-60 33.4 0 53.1 25.4 53.1 58m38.7-56v66.6c0 22.4 9.3 32.7 23.4 32.7 15 0 24-10.3 24-32.7v-66.6h21V409c0 35.2-18.2 50.8-45.7 50.8-26.4 0-43.6-14.7-43.6-50.7v-65.4h20.9m112.9 54.7c2.6.7 6 .9 10.2.9 15.6 0 25.1-7.6 25.1-21 0-12.8-8.8-19.5-23.2-19.5a57 57 0 0 0-12 1zm-20.7-53.2c7.5-1.4 17.9-2.4 32-2.4 15.2 0 26.4 3.2 33.7 9.3a32.3 32.3 0 0 1 11.2 25.3c0 10.9-3.4 19.9-9.9 26-8.3 8.3-21.3 12.2-36 12.2-4 0-7.6-.2-10.3-.7v43h-20.7V345.3"/></svg>