<svg title="MediaMix Group" xmlns="http://www.w3.org/2000/svg" xml:space="preserve" viewBox="0 0 687 516"><path fill="#7dd5f7" d="M71 143v355.1c0 17.6 0 17.6-17.4 17.7-14 0-28-.3-41.7 0-9 .3-11.9-3-11.9-12C.4 468 0 432 0 396V0c6.7 4 11 6.3 14.8 9.2 105.8 79.4 211.6 159 317.3 238.6 8.6 6.5 14.2 6.8 23 0 93.1-70.3 186.4-140.4 279.8-210.3 13.5-10.1 27-20.3 40.7-30.4 2.8-2 6-3.6 11.6-6.9 0 28.8.3 54.9-.4 80.9 0 3.5-4.7 7.7-8.2 10.4-108 81.5-216 162.9-324.3 244.2-8 6-13.2 5.7-20.9 0A52934 52934 0 0 0 86.9 150.2c-4-3-8-5.8-12-8.6l-4 1.5"/><path fill="#2b3986" d="M140 277.6c6.4 4 10.5 6 13.8 8.6C213 330.6 272.3 375 331.4 419.7c9.2 7 15.2 7.7 25 .3a65969 65969 0 0 1 318-239.5c3.2-2.5 6.7-4.4 12.3-8 .4 7 .9 11.3.9 15.6 0 104 0 208.1.3 312.2 0 12.4-3.9 16.3-15.7 15.6-13.9-.8-27.8-.8-41.7 0-11.5.7-13.1-5.2-13-14.6V328.7c0-4.5-.6-9-1-16.4-5.1 3.5-8.6 5.2-11.7 7.8A63228.3 63228.3 0 0 0 355 507.5c-8.8 6.7-14.2 6.3-22.7 0C272 461.5 211.7 416 151 370.7a24.2 24.2 0 0 1-11.2-22.2c.7-22.6.2-45.3.2-70.9"/></svg>